<svg width="168" height="168" viewBox="0 0 168 168" fill="none" xmlns="http://www.w3.org/2000/svg">
<rect opacity="0.01" width="167.559" height="167.559" fill="white"/>
<path d="M111.193 30.8925C137.976 30.8927 159.687 52.6049 159.687 79.3876C159.687 106.17 137.975 127.881 111.193 127.882C84.4102 127.882 62.698 106.17 62.6978 79.3876C62.6978 52.6047 84.41 30.8925 111.193 30.8925ZM99.5034 48.3007L85.5767 90.0809H113.43L99.5034 117.934L141.284 76.1542H113.43L127.357 48.3007H99.5034Z" fill="url(#paint0_radial_644_760)"/>
<path d="M23.5242 57.4819H57.9695C55.7608 61.8367 54.1894 66.5689 53.3796 71.5571H24.1404V90.8999H54.1248C55.3472 95.9204 57.3535 100.633 60.0027 104.906H23.5242V142.343H10.4724V20.9448H23.5242V57.4819ZM80.9714 123.451C85.0484 125.33 89.4296 126.66 94.0222 127.346V142.343H80.9714V123.451ZM94.0222 31.4272C89.4297 32.113 85.0484 33.444 80.9714 35.3228V20.9448H94.0232L94.0222 31.4272Z" fill="url(#paint1_radial_644_760)"/>
<defs>
<radialGradient id="paint0_radial_644_760" cx="0" cy="0" r="1" gradientUnits="userSpaceOnUse" gradientTransform="translate(159.687 -2.24377) rotate(126.112) scale(152.395 367.729)">
<stop offset="0.00175976" stop-color="#D2CA4E"/>
<stop offset="0.454543" stop-color="#44A071"/>
<stop offset="0.867438" stop-color="#138462"/>
</radialGradient>
<radialGradient id="paint1_radial_644_760" cx="0" cy="0" r="1" gradientUnits="userSpaceOnUse" gradientTransform="translate(94.0232 -20.5308) rotate(116.661) scale(172.432 350.426)">
<stop offset="0.00175976" stop-color="#D2CA4E"/>
<stop offset="0.454543" stop-color="#44A071"/>
<stop offset="0.867438" stop-color="#138462"/>
</radialGradient>
</defs>
</svg>
